<?xml version="1.0" encoding="utf-8"?>
<!-- Generator: Adobe Illustrator 16.0.0, SVG Export Plug-In . SVG Version: 6.00 Build 0)  -->
<!DOCTYPE svg PUBLIC "-//W3C//DTD SVG 1.1//EN" "http://www.w3.org/Graphics/SVG/1.1/DTD/svg11.dtd">
<svg version="1.1" id="图层_1" xmlns="http://www.w3.org/2000/svg" xmlns:xlink="http://www.w3.org/1999/xlink" x="0px" y="0px"
	 width="1024.286px" height="1024px" viewBox="16.4 0 1024.286 1024" enable-background="new 16.4 0 1024.286 1024"
	 xml:space="preserve">
<path fill="#C9C9C9" d="M986.377,409.028c-7.002-26.439-31.727-45.448-73.459-56.452c-4.716-1.429-9.718-2.573-15.149-3.716
	c-10.29-2.144-20.008,4.43-22.295,14.72c-2.001,10.29,4.431,20.008,14.721,22.295c4.431,0.857,8.861,2,12.862,3.144
	c27.012,7.146,43.447,17.865,47.02,29.727v0.285c5.574,20.58-22.295,54.309-79.604,91.61c-1.715-22.295-5.288-44.876-11.434-67.171
	c-27.011-100.757-96.754-184.506-190.794-229.525c-76.889-36.73-164.211-44.876-246.675-22.867
	c-152.921,41.017-255.964,176.074-263.967,326.279c-32.728,19.437-59.596,39.159-79.605,59.024
	c-11.433,11.147-20.294,22.581-27.011,34.157c-6.574,11.72-10.576,24.296-10.576,37.016c0,5.002,0.572,10.004,2.001,14.721v0.286
	c12.577,46.019,79.891,66.027,172.357,67.313c25.583,39.159,58.739,73.459,98.041,100.471
	c60.168,41.16,130.626,62.598,201.799,62.598c30.87,0,62.026-3.859,92.324-12.291c153.064-40.874,256.394-176.073,264.11-326.565
	c79.033-47.306,127.482-98.612,115.478-144.346C986.377,409.314,986.377,409.028,986.377,409.028z M78.569,652.559
	c-0.572-2.001-0.857-3.716-0.857-5.288c0-4.716,1.715-10.861,5.86-18.579c7.574-13.434,23.438-30.298,46.162-48.163
	c8.289-6.431,17.864-13.005,28.154-19.722c1.715,22.295,5.288,44.875,11.434,67.313c5.859,22.295,14.006,43.446,23.867,63.741
	C125.303,688.146,84.429,673.139,78.569,652.559z M596.929,844.067c-90.181,24.296-186.221,7.718-263.253-45.019
	c-28.297-19.437-53.165-43.161-73.745-70.029c88.895-3.859,193.795-21.438,293.123-48.163
	c99.756-26.726,199.226-63.741,278.116-104.901C815.163,700.722,725.697,809.481,596.929,844.067L596.929,844.067z M543.335,644.556
	c-123.337,33.156-228.524,47.02-307.271,48.163c-13.005-23.296-23.438-48.163-30.298-74.317
	c-45.591-170.071,55.737-345.573,226.094-391.306c27.298-7.146,54.881-10.862,82.606-10.862c47.306,0,94.611,10.576,138.058,31.441
	c84.321,40.303,146.49,115.191,170.643,205.372c7.146,26.439,10.576,53.165,10.862,79.604
	C764.999,570.953,666.815,611.398,543.335,644.556L543.335,644.556z M871.329,289.121c40.303,0,72.888-32.585,72.888-72.888
	s-32.585-72.888-72.888-72.888c-40.159,0-72.888,32.585-72.888,72.888S830.884,289.121,871.329,289.121z M871.329,176.359
	c22.01,0,39.731,17.865,39.731,39.731c0.285,22.009-17.865,39.731-39.731,39.731c-22.009,0-39.73-17.865-39.73-39.731
	C831.455,194.224,849.32,176.359,871.329,176.359z M310.095,542.941c-0.286-10.29-9.147-18.579-19.437-18.008
	c-10.29,0.286-18.436,9.147-18.007,19.438c0.286,8.574,1.143,17.436,2.572,26.153c1.429,9.433,9.433,16.149,18.579,16.149
	c0.857,0,2.001,0,2.715-0.285c10.291-1.43,17.293-11.147,15.864-21.438C311.237,557.662,310.523,550.23,310.095,542.941
	L310.095,542.941z M454.869,301.126c-78.604,19.723-141.631,77.604-168.642,154.064c-3.287,9.719,1.715,20.58,11.433,23.867
	c2.001,0.857,4.288,1.144,6.146,1.144c7.717,0,15.149-4.717,17.865-12.434c22.866-64.885,76.317-113.477,142.631-130.198
	c10.004-2.572,16.149-12.862,13.577-22.867C475.307,304.699,465.017,298.696,454.869,301.126L454.869,301.126z M492.456,46.591
	l16.722,5.574l5.574,16.721c1.429,3.859,4.716,6.432,8.86,6.432c4.288,0,7.574-2.573,8.861-6.432l5.573-16.721l16.722-5.574
	c3.858-1.429,6.431-4.716,6.431-8.861s-2.572-7.575-6.431-8.861l-16.579-5.717l-5.573-16.721C531.187,2.572,527.9,0,523.755,0
	c-4.287,0-7.574,2.572-8.86,6.431l-5.574,16.721l-16.864,5.574c-3.858,1.429-6.431,4.716-6.431,8.86
	C486.025,41.732,488.598,45.162,492.456,46.591L492.456,46.591z M54.416,425.75c1.429,3.858,4.716,6.431,8.861,6.431
	c4.288,0,7.575-2.572,8.861-6.431l7.717-23.725l23.867-7.717c3.859-1.429,6.432-4.716,6.432-8.861c0-4.288-2.573-7.575-6.432-8.861
	l-23.724-7.718l-7.717-23.724c-1.429-3.859-4.716-6.431-8.861-6.431c-4.288,0-7.575,2.572-8.861,6.431l-8.003,23.581l-23.724,7.718
	c-3.859,1.429-6.432,4.716-6.432,8.861c0,4.288,2.573,7.575,6.432,8.861l23.724,7.718L54.416,425.75z M329.389,930.532
	l-16.722-5.573l-5.574-16.722c-1.429-3.858-4.716-6.432-8.86-6.432s-7.575,2.573-8.861,6.432l-5.574,16.722l-16.721,5.573
	c-3.859,1.43-6.432,4.716-6.432,8.861c0,4.145,2.573,7.574,6.432,8.86l16.721,5.574l5.574,16.721
	c1.429,3.859,4.716,6.432,8.861,6.432s7.575-2.572,8.86-6.432l5.574-16.721l16.722-5.574c3.858-1.429,6.431-4.716,6.431-8.86
	S333.247,931.962,329.389,930.532L329.389,930.532z M251.213,141.059c10.433,0,19.008-8.432,19.008-18.865
	c0-10.433-8.432-19.008-19.008-19.008c-10.433,0-19.008,8.432-19.008,19.008C232.205,132.627,240.78,141.059,251.213,141.059
	L251.213,141.059z M514.18,986.27c-10.433,0-19.008,8.433-19.008,18.865c0,6.717,3.716,13.006,9.433,16.293
	c5.859,3.43,13.005,3.43,19.008,0c5.859-3.431,9.433-9.576,9.433-16.293C533.045,994.702,524.612,986.27,514.18,986.27
	L514.18,986.27z M1021.678,554.089c-10.433,0-19.008,8.433-19.008,19.008c0,10.434,8.433,18.865,19.008,18.865
	c10.434,0,19.008-8.432,19.008-18.865C1040.686,562.521,1032.111,554.089,1021.678,554.089L1021.678,554.089z M683.394,141.059
	c10.433,0,19.008-8.432,19.008-18.865s-8.432-19.008-19.008-19.008s-19.008,8.432-19.008,19.008
	C664.528,132.627,673.104,141.059,683.394,141.059z M968.513,770.895l-23.724-7.718l-7.718-23.725
	c-1.43-3.858-4.717-6.431-8.861-6.431c-4.287,0-7.574,2.572-8.86,6.431l-7.718,23.725l-23.725,7.718
	c-3.858,1.429-6.431,4.716-6.431,8.86c0,4.287,2.572,7.574,6.431,8.86l23.725,7.718l7.718,23.725
	c1.429,3.858,4.716,6.431,8.86,6.431c4.288,0,7.575-2.572,8.861-6.431l7.718-23.725l23.724-7.718
	c3.858-1.429,6.432-4.716,6.432-8.86C974.944,775.468,972.086,772.181,968.513,770.895z"/>
</svg>
